# xmcd
#
# Track frame offsets:
#	150
#	13644
#	25558
#	44847
#	63146
#	79238
#
# Disc length: 1256 seconds
#
# Revision: 0
# Processed by: cddbd v1.5.2PL0 Copyright (c) Steve Scherf et al.
# Submitted via: audiograbber 1.83.01
#
DISCID=4104e606
DTITLE=Connor Cleary - At This Stage
DYEAR=2009
DGENRE=Blues
TTITLE0=Bliss
TTITLE1=Easier Said Then Done
TTITLE2=Back To The Matter At Hand
TTITLE3=Indescent Blues
TTITLE4=Blues For Sophie
TTITLE5=Heartland
EXTD=
EXTT0=
EXTT1=
EXTT2=
EXTT3=
EXTT4=
EXTT5=
PLAYORDER=
